<svg t="1736086237128" class="icon" viewBox="0 0 1024 1024" version="1.1" xmlns="http://www.w3.org/2000/svg" p-id="62710" width="128" height="128"><path d="M706.815211 901.939694a391.627214 391.627214 0 0 1-387.377631-0.409598 35.481456 35.481456 0 1 0-35.276657 61.439751 462.334128 462.334128 0 0 0 457.828546 0.460798 35.481456 35.481456 0 1 0-35.174258-61.439751zM91.598503 605.646494h0.870396a35.839855 35.839855 0 0 0 34.66226-36.403052 391.729613 391.729613 0 0 1 191.743223-346.161798 35.481456 35.481456 0 0 0-36.198253-61.081353A462.794926 462.794926 0 0 0 56.321845 570.984235a35.839855 35.839855 0 0 0 35.481457 34.662259z m620.797485-382.56485a391.780813 391.780813 0 0 1 191.794424 346.161798 35.532656 35.532656 0 0 0 34.611059 36.403052h0.870397a35.532656 35.532656 0 0 0 35.481456-34.662259 462.692526 462.692526 0 0 0-226.559082-408.983944 35.481456 35.481456 0 0 0-36.198254 61.081353z m-196.453604 60.671754a141.874625 141.874625 0 1 0-141.823426-141.874625 142.028225 142.028225 0 0 0 141.823426 141.874625z m0-212.735138a70.860513 70.860513 0 1 1-70.860513 70.860513 70.962913 70.962913 0 0 1 70.860513-70.860513z m361.982534 570.877688a141.874625 141.874625 0 1 0 141.874625 141.874625 142.028225 142.028225 0 0 0-141.874625-141.874625z m0 212.735138a70.911713 70.911713 0 1 1 70.860513-70.860513 70.962913 70.962913 0 0 1-70.860513 70.860513zM146.075082 641.895948a141.874625 141.874625 0 1 0 141.874625 141.874625 142.028225 142.028225 0 0 0-141.874625-141.874625z m0 212.735138a70.911713 70.911713 0 1 1 70.860513-70.860513 70.962913 70.962913 0 0 1-70.860513 70.860513zM620.901959 542.158751a21.145514 21.145514 0 1 1 0 42.291029h-84.684457v42.342229h84.684457a21.196714 21.196714 0 0 1 0 42.342228h-84.684457v105.829972a21.145514 21.145514 0 0 1-42.291029 0v-105.829972H409.242016a21.196714 21.196714 0 0 1 0-42.342228h84.684457v-42.342229H409.242016a21.145514 21.145514 0 0 1 0-42.291029H474.112153l-79.103679-92.159626a21.145514 21.145514 0 0 1 32.10227-27.596689l88.319642 102.757984 91.39163-103.013982a21.196714 21.196714 0 0 1 31.692672 28.415884l-81.45887 91.596429z" fill="#ffffff" p-id="62711"></path></svg>